<svg width="37" height="37" viewBox="0 0 37 37" fill="none" xmlns="http://www.w3.org/2000/svg">
<g clip-path="url(#clip0_138_147)">
<path d="M32.89 4.31998H31.18V1.22C31.153 0.927077 31.0175 0.654848 30.8001 0.456634C30.5827 0.258419 30.2992 0.148528 30.005 0.148528C29.7108 0.148528 29.4273 0.258419 29.2099 0.456634C28.9925 0.654848 28.8571 0.927077 28.83 1.22V4.37002H9.55999V1.22C9.53294 0.927077 9.39747 0.654848 9.18011 0.456634C8.96274 0.258419 8.67917 0.148528 8.385 0.148528C8.09083 0.148528 7.80726 0.258419 7.5899 0.456634C7.37253 0.654848 7.23707 0.927077 7.21001 1.22V4.37002H4.05999C2.98402 4.37267 1.9529 4.80122 1.19207 5.56204C0.431244 6.32287 0.00263279 7.35405 -7.62939e-06 8.43002V32.93C-7.62939e-06 34.0068 0.427743 35.0395 1.18914 35.8009C1.95054 36.5623 2.98321 36.99 4.05999 36.99H32.89C33.966 36.9874 34.9971 36.5588 35.7579 35.7979C36.5188 35.0371 36.9474 34.006 36.95 32.93V8.43002C36.9553 7.89303 36.8542 7.36028 36.6527 6.86252C36.4512 6.36475 36.1531 5.9118 35.7757 5.52975C35.3983 5.14771 34.949 4.84413 34.4537 4.6365C33.9585 4.42888 33.427 4.32127 32.89 4.31998ZM32.89 34.58H4.05999C3.60912 34.58 3.17674 34.4009 2.85793 34.0821C2.53912 33.7632 2.36001 33.3308 2.36001 32.88V15.32H34.59V32.88C34.59 33.3308 34.4109 33.7632 34.0921 34.0821C33.7733 34.4009 33.3409 34.58 32.89 34.58ZM4.05999 6.68002H7.21001V9.81998C7.19492 9.98339 7.21407 10.1482 7.26626 10.3037C7.31845 10.4593 7.40251 10.6023 7.51308 10.7236C7.62366 10.8449 7.75834 10.9417 7.90847 11.008C8.0586 11.0743 8.22089 11.1085 8.385 11.1085C8.54911 11.1085 8.7114 11.0743 8.86153 11.008C9.01166 10.9417 9.14634 10.8449 9.25692 10.7236C9.3675 10.6023 9.45156 10.4593 9.50375 10.3037C9.55593 10.1482 9.57508 9.98339 9.55999 9.81998V6.68002H28.79V9.81998C28.7749 9.98339 28.7941 10.1482 28.8462 10.3037C28.8984 10.4593 28.9825 10.6023 29.0931 10.7236C29.2037 10.8449 29.3383 10.9417 29.4885 11.008C29.6386 11.0743 29.8009 11.1085 29.965 11.1085C30.1291 11.1085 30.2914 11.0743 30.4416 11.008C30.5917 10.9417 30.7263 10.8449 30.8369 10.7236C30.9475 10.6023 31.0315 10.4593 31.0837 10.3037C31.1359 10.1482 31.1551 9.98339 31.14 9.81998V6.68002H32.85C33.0732 6.68002 33.2943 6.72398 33.5006 6.80942C33.7068 6.89485 33.8942 7.02009 34.0521 7.17795C34.2099 7.33581 34.3352 7.52321 34.4206 7.72946C34.506 7.93571 34.55 8.15673 34.55 8.37997V12.97H2.36001V8.37997C2.36001 8.15673 2.40397 7.93571 2.4894 7.72946C2.57484 7.52321 2.70007 7.33581 2.85793 7.17795C3.01579 7.02009 3.20319 6.89485 3.40945 6.80942C3.6157 6.72398 3.83674 6.68002 4.05999 6.68002Z" fill="white"/>
</g>
<defs>
<clipPath id="clip0_138_147">
<rect width="36.94" height="36.94" fill="white"/>
</clipPath>
</defs>
</svg>
