<svg id="Capa_1" data-name="Capa 1" xmlns="http://www.w3.org/2000/svg" viewBox="0 0 800 800"><defs><style>.cls-1{fill:#009FE3;}.cls-2{fill:#fff;}</style></defs><title>Icono</title><circle class="cls-1" cx="400" cy="400" r="400"/><path class="cls-2" d="M614.84,379.16c-18.53-9.29-55.06-9.29-56.17-9.29a7.9,7.9,0,0,0-8.12,8.12,8.25,8.25,0,0,0,8.12,8.07c9.24,0,35.89,1.17,49.22,7.54a4.19,4.19,0,0,0,3.45,1.17,9.08,9.08,0,0,0,7.54-4.62C620,386.07,618.87,380.86,614.84,379.16Z"/><path class="cls-2" d="M655.35,496.71l-33.61-9.29c-1.7-1.17-2.29-1.75-2.29-4V471.81c2.87-1.75,5.2-4.09,8.12-6.37a60,60,0,0,0,18.53-44V405.18l3.45-6.37a46,46,0,0,0,5.79-23.15V332.81c0-4-3.45-8.12-7.54-8.12H567.9c-28.94,0-52.09,23.78-52.09,52.72V378a46.6,46.6,0,0,0,4.62,19.7l4,8.66v13.33c0,22,11,40.51,26.65,52.14v11.58c0,2.29,0,2.87-6.37,4.62L528,493.21l-47.52-17.36a11.32,11.32,0,0,0-2.29-7l-15.08-15.61V426.63c1.17-1.75,2.92-2.92,5.2-4.62a97.28,97.28,0,0,0,30.11-70.08v-22a95,95,0,0,0,8.71-39.4V201.93a8.25,8.25,0,0,0-8.12-8.07H375.06c-43.43,0-78.74,35.89-78.74,79.32v17.36a93.19,93.19,0,0,0,8.71,39.4V349a99,99,0,0,0,35.31,76.46v27.82l-15.08,15.61a14.58,14.58,0,0,0-2.29,7l-50.39,17.95a36,36,0,0,0-10.41,5.2l-7.54-4.62c23.73-9.87,30.69-24.32,31.86-25.48,1.17-1.75,1.17-4.62,0-7-5.79-11.58-7-34.14-7.54-51.55,0-5.79-.58-11.58-.58-15.61-2.87-40-32.44-70.08-70.08-70.08-37.06,0-67.75,30.11-70.62,70.08,0,4.62-.58,9.82-.58,15.61-.58,17.41-1.17,39.39-7,51.55-1.75,2.33-1.75,5.2,0,7,0,1.17,7.54,15.61,31.86,25.48l-22.57,11a35.46,35.46,0,0,0-19.7,31.27v60.79A7.77,7.77,0,0,0,127.8,605c4.09,0,8.12-3.45,8.12-7.54V536.64a18.12,18.12,0,0,1,9.87-16.78L173.56,506l9.29,9.29c6.32,6.91,15,9.82,23.73,9.82s17.36-2.92,23.73-9.82l9.82-9.29,8.71,4.62c-4.62,6.37-7,14.49-7,23.2v63.66c0,4.09,4,7.54,8.12,7.54a7.77,7.77,0,0,0,8.07-7.54V533.77c0-11.62,7-22,17.95-25.49l53.89-19.7,22,33.56a15.88,15.88,0,0,0,12.74,7h1.17c4.62,0,8.66-1.17,12.16-5.2l13.91-13.33v85.7a7.89,7.89,0,0,0,8.07,8.12,8.26,8.26,0,0,0,8.12-8.12v-85.7l13.33,13.33a18.23,18.23,0,0,0,12.74,5.2h1.17a16.45,16.45,0,0,0,12.16-7L470,488.59l53.84,19.7c10.46,3.45,17.95,13.86,17.95,25.49v63.66A7.81,7.81,0,0,0,550,605a7.67,7.67,0,0,0,7.54-7.54V533.77c0-11.62-4-22.62-12.16-30.74l2.29-.53a67.14,67.14,0,0,0,8.12-2.92l20.86,20.87v75.82a7.89,7.89,0,0,0,8.07,8.12,8.26,8.26,0,0,0,8.12-8.12V520.45l20.86-20.87c1.17.58,2.29.58,3.45,1.17l34.19,9.82c8.07,1.75,12.74,9.29,12.74,17.36v67.75a8.25,8.25,0,0,0,8.07,8.12,7.9,7.9,0,0,0,8.12-8.12V527.94C680.83,514.66,671,500.75,655.35,496.71ZM170.11,482c-15.27-5.74-22.66-13.13-26.07-16.54a90.11,90.11,0,0,0,4-19.7,62.88,62.88,0,0,0,22,27.19Zm47.47,22.81A18.4,18.4,0,0,1,205,509.55a19.92,19.92,0,0,1-12.94-4.77L184,497.25a13.11,13.11,0,0,0,2.33-8.07v-9.29a61.67,61.67,0,0,0,18.53,2.92c6.37,0,12.16-.58,17.95-2.92v8.71a13.35,13.35,0,0,0,2.33,8.12ZM205.42,466c-24.9,0-45.18-20.23-45.18-44.55,0-4.67-3.45-8.12-7.54-8.12H151V411a134.5,134.5,0,0,1,.58-15.61,63.94,63.94,0,0,1,16.78-38.23c10.41-10.41,23.15-16.19,37.06-16.19s26.65,5.79,37.06,16.19a60.6,60.6,0,0,1,16.2,38.23c0,4,1.17,9.82,1.17,15.61v1.75c-8.71-13.91-23.15-23.73-40.51-29.52a117.82,117.82,0,0,0-31.27-5.2c-2.33,0-4.67.58-5.79,2.29l-15.08,15.08c-2.87,3.45-2.87,8.71,0,11.58a9.4,9.4,0,0,0,6,2.19,7.75,7.75,0,0,0,5.54-2.19l12.16-13.33c11,1.17,44.6,4.62,58.51,34.19C245.93,450.36,227.4,466,205.42,466Zm34.73,16.24V471.81c9.29-6.37,17.36-15.66,21.45-26.65,1.17,7.54,2.29,13.91,4.62,19.7C263.3,468.89,255.22,476.43,240.15,482.22Zm79.32-133.75V328.19a9.93,9.93,0,0,0-.58-4.09,76.7,76.7,0,0,1-8.07-34.73V272c0-33.61,28.35-62,62.55-62H488v79.32c0,12.74-2.33,24.32-7.54,34.73a5.73,5.73,0,0,0-1.12,4.09v23.15c0,22-8.71,42.26-24.9,58.51-2.33,2.29-4.67,3.45-7,5.2A75.8,75.8,0,0,1,401,431q-3.36,0-6.86-.29C352.5,428.38,319.47,391.85,319.47,348.47Zm46.35,165.6h-.58l-25.49-38.23,8.12-8.7,38.81,26.65Zm33.56-31.86-45.13-30.69V436.45a87.9,87.9,0,0,0,38.76,11h6.37c15.66,0,31.27-3.45,44.6-11v15.08Zm34.77,31.86H433l-20.86-20.87L451.52,466l7.54,8.71Zm150.53-6.37-19.07-19.11c0-1.75,1.12-2.92,1.12-5.2v-3.5A47.57,47.57,0,0,0,583,482.8h2.29c6.37,0,12.16-.58,17.95-2.92v3.5a8.6,8.6,0,0,0,1.17,5.2ZM616,453.82a40.69,40.69,0,0,1-29.13,12.35A33.8,33.8,0,0,1,583,466c-23.73-.53-43.43-21.4-43.43-46.88v-15c0-1.75,0-2.92-.58-3.5l-5.2-10.41c-2.33-3.5-2.92-8.12-2.92-12.16v-.58a36.71,36.71,0,0,1,36.48-36.48H638v34.14a34.48,34.48,0,0,1-3.5,15.66l-4,9.82c-1.17,1.17-1.17,1.75-1.17,3.5v17.36A45.34,45.34,0,0,1,616,453.82Z"/><path class="cls-2" d="M637.4,537.23a8.29,8.29,0,0,0-8.12,8.12V598c0,4,4.09,8.12,8.12,8.12a8.33,8.33,0,0,0,8.12-8.12V545.35A7.93,7.93,0,0,0,637.4,537.23Z"/><path class="cls-2" d="M386.15,284.22c4.52,0,9.19.15,13.81.54,26.07,1.17,44,7.54,55.59,19.11a8.21,8.21,0,0,0,5.79,2.14,8,8,0,0,0,5.79-2.14c2.92-2.92,2.92-8.71,0-11.58-19.16-19.21-52-24.12-80.39-24.12a290.94,290.94,0,0,0-42.36,3.26c-8.66,1.75-14.45,8.71-14.45,16.78v18.53a7.89,7.89,0,0,0,8.07,8.12c4.09,0,7.54-3.45,7.54-8.12V288.21s0-.58,1.17-.58A247.7,247.7,0,0,1,386.15,284.22Z"/><path class="cls-2" d="M302.11,554.59a8.29,8.29,0,0,0-8.07,8.12V598c0,4,4,8.12,8.07,8.12a8.33,8.33,0,0,0,8.12-8.12V562.71C310.81,558.09,306.73,554.59,302.11,554.59Z"/><path class="cls-2" d="M496.12,554.59a8.3,8.3,0,0,0-8.12,8.12V598c0,4,4,8.12,8.12,8.12a8.28,8.28,0,0,0,8.07-8.12V562.71C504.77,558.09,501.32,554.59,496.12,554.59Z"/></svg>