<svg id="Capa_1" data-name="Capa 1" xmlns="http://www.w3.org/2000/svg" viewBox="0 0 800 800"><defs><style>.cls-1{fill:#009FE3;}.cls-2{fill:#fff;}</style></defs><title>Icono</title><circle class="cls-1" cx="400" cy="400" r="400"/><path class="cls-2" d="M631.8,270.18a23.18,23.18,0,0,0-17.16-7.58h-180l10.81-94.84c0-1-.16-4.41-2.15-5.92a7.25,7.25,0,0,0-5.93-2.64h-73.9a7.07,7.07,0,0,0-5.91,2.62c-2,1.51-2.17,4.92-2.16,6l10.37,94.74H185.67A22.42,22.42,0,0,0,163.3,285V551a22.42,22.42,0,0,0,22.37,22.41h428.5A22.44,22.44,0,0,0,636.57,551V285.12A18.87,18.87,0,0,0,631.8,270.18ZM415.89,292.64h-30s0-.07,0-.11L372.64,175.39h56.47Zm-31,14.77h31c7.41,0,13.67-5.42,15.24-13.25l1.82-15.81H614.16a6.6,6.6,0,0,1,6.69,6.65V551.93h.83a7.44,7.44,0,0,1-7,5.7h-428c-3.67,0-7.13-3.23-7.13-6.65V285a7,7,0,0,1,7.13-6.65H367.84l1.82,15.76C370.15,301.45,377,307.42,384.9,307.42Z"/><path class="cls-2" d="M356.8,321.72h-133A15.64,15.64,0,0,0,208.57,337V513.78A15.64,15.64,0,0,0,223.82,529h133A15.65,15.65,0,0,0,372,513.78V337A15.64,15.64,0,0,0,356.8,321.72ZM330.05,451l-17.14-8.78v-9.42c9.7-7.27,15.25-18,15.25-29.54V388c0-16.55-13.68-30-30.5-30H282.9a30.05,30.05,0,0,0-30,30v15.25a36.67,36.67,0,0,0,14.77,29.54v9.43L251,451a23.59,23.59,0,0,0-12.39,20.42v41.92H224.29V337h132V512.84l-13.82.44V471.39C342.5,463.3,337.87,455.68,330.05,451ZM289.59,440.4c1.23,0,2.58-.12,3.89-.24.93-.09,1.88-.17,2.76-.21v3a30.46,30.46,0,0,0,2.15,6.82l-8.58,8.58-8.66-8.66a19.76,19.76,0,0,0,1.24-6.93v-2.68A57,57,0,0,0,289.59,440.4Zm.48-15.72a21.49,21.49,0,0,1-21.46-21.46V388a14.15,14.15,0,0,1,14.3-14.3h14.77A14.56,14.56,0,0,1,312.45,388v15.21A22.59,22.59,0,0,1,290.07,424.68Zm-36.72,46.71a7.92,7.92,0,0,1,3.74-6.3l11.33-5.44,10.47,10a14.58,14.58,0,0,0,10.69,4.57,15.5,15.5,0,0,0,10.67-4.55l10.49-10L322,465a7.44,7.44,0,0,1,3.38,6.35v41.92h-72Z"/><path class="cls-2" d="M415.41,388.88H577.93a15.64,15.64,0,0,0,15.25-15.24V358.86a15.26,15.26,0,0,0-15.25-15.24H415.41a15.26,15.26,0,0,0-15.25,15.24v14.77A15.26,15.26,0,0,0,415.41,388.88Zm1-15.72V359.34H577.94v13.35Z"/><path class="cls-2" d="M510.67,402.7H415.89a15.26,15.26,0,0,0-15.25,15.25v14.81A15.64,15.64,0,0,0,415.89,448h94.79a15.64,15.64,0,0,0,15.25-15.24V417.95A15.08,15.08,0,0,0,510.67,402.7Zm0,15.25v13.86l-94.32.43V418h94.31Z"/><path class="cls-2" d="M577.93,461.83h-162a15.26,15.26,0,0,0-15.25,15.25v14.81a15.64,15.64,0,0,0,15.25,15.24h162a15.64,15.64,0,0,0,15.25-15.24V477.08A15.08,15.08,0,0,0,577.93,461.83Zm0,15.25v13.86l-161.58.43V477.11H577.93Z"/></svg>