<svg width="345" height="55" viewBox="0 0 345 55" fill="none" xmlns="http://www.w3.org/2000/svg">
<g clip-path="url(#clip0_106_15)">
<path d="M139.74 0.0999985H138.83V54.84H139.74V0.0999985Z" fill="white"/>
<path d="M254.99 20.89V22.17H257.13V23.38H254.99V24.66H257.47V25.86H253.63V19.7H257.47V20.89H254.99Z" fill="white"/>
<path d="M258.05 25.29L258.59 24.41C258.999 24.6881 259.476 24.8473 259.97 24.87C260.35 24.87 260.59 24.72 260.59 24.47C260.59 24.22 260.15 24.1 259.54 23.93C258.93 23.76 258.21 23.49 258.21 22.64C258.21 21.79 259.08 21.28 260.05 21.28C260.636 21.2723 261.212 21.4319 261.71 21.74L261.16 22.54C260.793 22.3197 260.377 22.1926 259.95 22.17C259.62 22.17 259.42 22.29 259.42 22.5C259.42 22.71 259.92 22.9 260.42 23.03C261.25 23.24 261.81 23.55 261.81 24.38C261.81 25.21 261.08 25.86 259.97 25.86C259.282 25.8609 258.608 25.663 258.03 25.29" fill="white"/>
<path d="M262.42 23.58C262.418 23.2738 262.479 22.9704 262.597 22.6879C262.715 22.4055 262.889 22.1497 263.109 21.936C263.328 21.7223 263.588 21.5549 263.874 21.4439C264.159 21.3329 264.464 21.2806 264.77 21.29C265.22 21.2838 265.662 21.413 266.039 21.6609C266.415 21.9087 266.708 22.2637 266.88 22.68L265.78 23.14C265.7 22.9409 265.561 22.7705 265.383 22.6511C265.205 22.5316 264.995 22.4685 264.78 22.47C264.626 22.4553 264.471 22.473 264.324 22.5219C264.177 22.5707 264.042 22.6497 263.928 22.7537C263.814 22.8578 263.722 22.9846 263.66 23.126C263.597 23.2674 263.565 23.4204 263.565 23.575C263.565 23.7296 263.597 23.8826 263.66 24.024C263.722 24.1654 263.814 24.2922 263.928 24.3963C264.042 24.5003 264.177 24.5793 264.324 24.6281C264.471 24.677 264.626 24.6947 264.78 24.68C264.995 24.6815 265.205 24.6184 265.383 24.499C265.561 24.3795 265.7 24.2091 265.78 24.01L266.88 24.47C266.708 24.8863 266.415 25.2413 266.039 25.4892C265.662 25.737 265.22 25.8662 264.77 25.86C264.465 25.8694 264.161 25.8173 263.876 25.707C263.591 25.5966 263.332 25.4301 263.112 25.2175C262.893 25.0048 262.719 24.7503 262.6 24.469C262.481 24.1877 262.42 23.8854 262.42 23.58Z" fill="white"/>
<path d="M267.61 24.09V21.37H268.92V23.98C268.92 24.0719 268.938 24.163 268.973 24.2479C269.008 24.3328 269.06 24.41 269.125 24.475C269.19 24.54 269.267 24.5915 269.352 24.6267C269.437 24.6619 269.528 24.68 269.62 24.68C269.712 24.68 269.803 24.6619 269.888 24.6267C269.973 24.5915 270.05 24.54 270.115 24.475C270.18 24.41 270.232 24.3328 270.267 24.2479C270.302 24.163 270.32 24.0719 270.32 23.98V21.37H271.64V24.09C271.64 25.17 270.91 25.86 269.64 25.86C268.37 25.86 267.64 25.17 267.64 24.09" fill="white"/>
<path d="M273.82 22.98H275.7C275.655 22.7773 275.541 22.597 275.376 22.4707C275.211 22.3444 275.007 22.2804 274.8 22.29C274.581 22.2793 274.364 22.341 274.183 22.4657C274.002 22.5904 273.868 22.7712 273.8 22.98M277.02 23.82H273.74C273.755 24.0923 273.875 24.3483 274.075 24.5345C274.274 24.7208 274.537 24.823 274.81 24.82C275.013 24.8213 275.213 24.7681 275.389 24.6662C275.565 24.5642 275.71 24.4171 275.81 24.24L276.81 24.66C276.625 25.0391 276.331 25.3546 275.966 25.5665C275.601 25.7784 275.181 25.8771 274.76 25.85C274.447 25.8707 274.134 25.827 273.838 25.7215C273.543 25.6161 273.273 25.4511 273.044 25.2369C272.815 25.0227 272.633 24.7638 272.508 24.4762C272.383 24.1886 272.319 23.8785 272.319 23.565C272.319 23.2515 272.383 22.9414 272.508 22.6538C272.633 22.3662 272.815 22.1073 273.044 21.8931C273.273 21.6789 273.543 21.514 273.838 21.4085C274.134 21.303 274.447 21.2593 274.76 21.28C275.062 21.2615 275.365 21.3067 275.648 21.4127C275.932 21.5187 276.19 21.6831 276.406 21.8952C276.622 22.1074 276.791 22.3625 276.902 22.6442C277.013 22.9258 277.063 23.2276 277.05 23.53L277.02 23.82Z" fill="white"/>
<path d="M279.27 19.7H277.95V25.86H279.27V19.7Z" fill="white"/>
<path d="M283.8 23.55C283.794 23.3259 283.722 23.1085 283.593 22.925C283.465 22.7416 283.285 22.6001 283.076 22.5184C282.867 22.4367 282.639 22.4184 282.42 22.4657C282.201 22.513 282 22.6239 281.844 22.7844C281.687 22.945 281.582 23.1481 281.54 23.3684C281.499 23.5887 281.523 23.8163 281.61 24.0229C281.697 24.2295 281.843 24.4058 282.03 24.5298C282.217 24.6538 282.436 24.7199 282.66 24.72C282.812 24.7201 282.963 24.6896 283.103 24.6304C283.244 24.5713 283.371 24.4846 283.477 24.3756C283.583 24.2665 283.666 24.1373 283.722 23.9955C283.777 23.8537 283.804 23.7022 283.8 23.55ZM285.05 21.37V25.77H283.84V25.16C283.672 25.3869 283.451 25.5693 283.197 25.6913C282.942 25.8134 282.662 25.8713 282.38 25.86C281.807 25.8065 281.275 25.5411 280.887 25.1157C280.5 24.6902 280.285 24.1355 280.285 23.56C280.285 22.9845 280.5 22.4298 280.887 22.0044C281.275 21.5789 281.807 21.3135 282.38 21.26C282.644 21.2505 282.906 21.3015 283.147 21.4089C283.388 21.5164 283.601 21.6775 283.77 21.88V21.37H285.05Z" fill="white"/>
<path d="M287.98 24.78L288.86 23.87C289.015 24.1145 289.227 24.3177 289.478 24.4623C289.729 24.6068 290.011 24.6884 290.3 24.7C290.79 24.7 291.06 24.47 291.06 24.09C291.06 23.71 290.52 23.4 289.86 23.09C289.2 22.78 288.25 22.39 288.25 21.29C288.255 21.0408 288.312 20.7954 288.418 20.5697C288.524 20.344 288.677 20.1432 288.865 19.9801C289.054 19.817 289.274 19.6953 289.513 19.6229C289.752 19.5506 290.003 19.5291 290.25 19.56C290.627 19.5605 291 19.6399 291.344 19.7932C291.689 19.9465 291.997 20.1702 292.25 20.45L291.43 21.27C291.297 21.0879 291.124 20.9384 290.925 20.8328C290.726 20.7271 290.505 20.668 290.28 20.66C289.93 20.66 289.65 20.85 289.65 21.17C289.65 21.49 290.19 21.79 290.76 22.03C291.55 22.36 292.45 22.79 292.45 23.95C292.444 24.2108 292.385 24.4676 292.275 24.7043C292.166 24.941 292.008 25.1524 291.813 25.3252C291.617 25.4981 291.388 25.6286 291.14 25.7086C290.892 25.7886 290.63 25.8163 290.37 25.79C289.931 25.7855 289.497 25.6888 289.098 25.5062C288.698 25.3236 288.341 25.0592 288.05 24.73" fill="white"/>
<path d="M293.14 24.09V21.37H294.45V23.98C294.45 24.0719 294.468 24.163 294.503 24.2479C294.538 24.3328 294.59 24.41 294.655 24.475C294.72 24.54 294.797 24.5915 294.882 24.6267C294.967 24.6619 295.058 24.68 295.15 24.68C295.242 24.68 295.333 24.6619 295.418 24.6267C295.503 24.5915 295.58 24.54 295.645 24.475C295.71 24.41 295.762 24.3328 295.797 24.2479C295.832 24.163 295.85 24.0719 295.85 23.98V21.37H297.17V24.09C297.17 25.17 296.44 25.86 295.17 25.86C293.9 25.86 293.17 25.17 293.17 24.09" fill="white"/>
<path d="M301.86 23.58C301.858 23.3545 301.789 23.1347 301.662 22.9484C301.535 22.762 301.356 22.6175 301.147 22.533C300.938 22.4486 300.709 22.428 300.488 22.4739C300.267 22.5199 300.065 22.6302 299.907 22.791C299.749 22.9519 299.642 23.1559 299.6 23.3775C299.558 23.599 299.583 23.828 299.671 24.0355C299.759 24.243 299.906 24.4198 300.095 24.5434C300.284 24.667 300.505 24.732 300.73 24.73C300.88 24.7287 301.028 24.6979 301.165 24.6394C301.303 24.5809 301.428 24.4958 301.533 24.389C301.638 24.2823 301.721 24.1558 301.777 24.017C301.833 23.8782 301.861 23.7297 301.86 23.58ZM303.18 23.58C303.196 23.8716 303.153 24.1634 303.054 24.438C302.955 24.7126 302.801 24.9644 302.602 25.1782C302.403 25.392 302.163 25.5635 301.897 25.6824C301.63 25.8013 301.342 25.8651 301.05 25.87C300.786 25.8818 300.523 25.8319 300.282 25.7243C300.04 25.6166 299.828 25.4542 299.66 25.25V28.02H298.34V21.37H299.55V21.97C299.72 21.7462 299.942 21.5666 300.196 21.4465C300.45 21.3264 300.729 21.2693 301.01 21.28C301.301 21.2889 301.587 21.3559 301.851 21.477C302.116 21.5981 302.353 21.7709 302.55 21.9853C302.746 22.1996 302.898 22.4511 302.996 22.725C303.094 22.9989 303.136 23.2896 303.12 23.58" fill="white"/>
<path d="M305.11 22.98H306.99C306.947 22.7755 306.834 22.5928 306.669 22.4645C306.504 22.3363 306.299 22.2709 306.09 22.28C305.869 22.2699 305.652 22.3331 305.471 22.4597C305.29 22.5863 305.156 22.7693 305.09 22.98M308.31 23.81H305.05C305.05 23.9474 305.078 24.0834 305.132 24.2096C305.187 24.3357 305.267 24.4492 305.367 24.5431C305.468 24.6369 305.586 24.709 305.716 24.7549C305.845 24.8009 305.983 24.8196 306.12 24.81C306.324 24.8134 306.524 24.7612 306.701 24.659C306.877 24.5568 307.022 24.4085 307.12 24.23L308.12 24.66C307.932 25.0364 307.637 25.3491 307.273 25.559C306.908 25.7688 306.49 25.8666 306.07 25.84C305.758 25.8638 305.444 25.8233 305.148 25.7209C304.851 25.6186 304.58 25.4565 304.349 25.2448C304.118 25.0332 303.933 24.7763 303.805 24.4903C303.677 24.2042 303.609 23.895 303.606 23.5817C303.603 23.2684 303.663 22.9578 303.785 22.669C303.906 22.3802 304.086 22.1194 304.312 21.9027C304.538 21.686 304.807 21.518 305.1 21.4092C305.394 21.3004 305.707 21.253 306.02 21.27C306.319 21.2559 306.617 21.3041 306.897 21.4114C307.176 21.5187 307.43 21.6829 307.642 21.8935C307.855 22.1041 308.021 22.3565 308.131 22.6348C308.241 22.913 308.291 23.2111 308.28 23.51L308.31 23.81Z" fill="white"/>
<path d="M312.48 21.57L312.05 22.69C311.913 22.6121 311.758 22.5707 311.6 22.57C311.452 22.5823 311.307 22.6246 311.176 22.6943C311.044 22.764 310.928 22.8598 310.834 22.9757C310.741 23.0917 310.672 23.2254 310.632 23.3688C310.591 23.5122 310.581 23.6623 310.6 23.81V25.81H309.28V21.42H310.6V22.13C310.702 21.8942 310.871 21.6935 311.086 21.5531C311.301 21.4126 311.553 21.3385 311.81 21.34C312.066 21.3316 312.317 21.4129 312.52 21.57" fill="white"/>
<path d="M313.14 21.42H314.45V25.83H313.14V21.42ZM313.05 20.37C313.05 20.1737 313.128 19.9855 313.267 19.8467C313.406 19.708 313.594 19.63 313.79 19.63C313.986 19.63 314.174 19.708 314.313 19.8467C314.452 19.9855 314.53 20.1737 314.53 20.37C314.53 20.5663 314.452 20.7545 314.313 20.8933C314.174 21.032 313.986 21.11 313.79 21.11C313.594 21.11 313.406 21.032 313.267 20.8933C313.128 20.7545 313.05 20.5663 313.05 20.37Z" fill="white"/>
<path d="M318.79 23.57C318.805 23.4188 318.787 23.2662 318.739 23.122C318.691 22.9778 318.614 22.8452 318.512 22.7328C318.41 22.6203 318.285 22.5305 318.146 22.469C318.007 22.4075 317.857 22.3757 317.705 22.3757C317.553 22.3757 317.403 22.4075 317.264 22.469C317.125 22.5305 317 22.6203 316.898 22.7328C316.796 22.8452 316.719 22.9778 316.671 23.122C316.623 23.2662 316.605 23.4188 316.62 23.57C316.605 23.7212 316.623 23.8739 316.671 24.018C316.719 24.1622 316.796 24.2948 316.898 24.4072C317 24.5197 317.125 24.6096 317.264 24.671C317.403 24.7325 317.553 24.7643 317.705 24.7643C317.857 24.7643 318.007 24.7325 318.146 24.671C318.285 24.6096 318.41 24.5197 318.512 24.4072C318.614 24.2948 318.691 24.1622 318.739 24.018C318.787 23.8739 318.805 23.7212 318.79 23.57ZM315.37 23.57C315.358 23.1048 315.485 22.6467 315.735 22.254C315.985 21.8614 316.346 21.5522 316.772 21.3658C317.199 21.1795 317.671 21.1245 318.129 21.2079C318.586 21.2913 319.009 21.5093 319.342 21.834C319.676 22.1588 319.904 22.5755 320 23.031C320.095 23.4865 320.052 23.96 319.877 24.3911C319.702 24.8222 319.402 25.1912 319.016 25.4511C318.63 25.711 318.175 25.8499 317.71 25.85C317.406 25.858 317.103 25.805 316.819 25.694C316.535 25.583 316.277 25.4163 316.059 25.2038C315.841 24.9913 315.667 24.7372 315.549 24.4566C315.431 24.176 315.37 23.8745 315.37 23.57Z" fill="white"/>
<path d="M324.21 21.61L323.76 22.74C323.624 22.659 323.469 22.6142 323.31 22.61C323.162 22.6236 323.018 22.6668 322.887 22.737C322.757 22.8071 322.641 22.9029 322.548 23.0185C322.455 23.1342 322.385 23.2673 322.345 23.4102C322.304 23.553 322.292 23.7026 322.31 23.85V25.85H320.99V21.47H322.31V22.18C322.41 21.9423 322.579 21.7396 322.794 21.5972C323.009 21.4549 323.262 21.3793 323.52 21.38C323.776 21.3732 324.027 21.4544 324.23 21.61" fill="white"/>
<path d="M257.15 30.96C257.148 30.8645 257.126 30.7705 257.086 30.6838C257.046 30.597 256.988 30.5194 256.917 30.4557C256.846 30.392 256.762 30.3436 256.672 30.3134C256.581 30.2831 256.485 30.2718 256.39 30.28H255.05V31.63H256.44C256.535 31.6397 256.63 31.6297 256.721 31.6006C256.812 31.5716 256.895 31.5241 256.967 31.4612C257.038 31.3982 257.095 31.3212 257.136 31.235C257.176 31.1488 257.198 31.0551 257.2 30.96M258.52 30.96C258.523 31.2036 258.476 31.4453 258.383 31.6706C258.291 31.8959 258.153 32.1 257.98 32.2709C257.806 32.4418 257.599 32.5759 257.373 32.6651C257.146 32.7542 256.904 32.7967 256.66 32.79H255.05V35.31H253.68V29.07H256.68C256.925 29.0687 257.169 29.1162 257.396 29.2098C257.623 29.3034 257.829 29.4413 258.002 29.6153C258.175 29.7894 258.312 29.9961 258.404 30.2236C258.496 30.451 258.543 30.6945 258.54 30.94" fill="white"/>
<path d="M262.11 32.98C262.115 32.8322 262.091 32.6849 262.038 32.5468C261.985 32.4086 261.905 32.2826 261.802 32.1762C261.7 32.0698 261.577 31.9852 261.44 31.9274C261.304 31.8696 261.158 31.8399 261.01 31.84C260.708 31.84 260.418 31.9601 260.204 32.1739C259.99 32.3877 259.87 32.6777 259.87 32.98C259.87 33.2824 259.99 33.5723 260.204 33.7861C260.418 33.9999 260.708 34.12 261.01 34.12C261.158 34.1201 261.304 34.0904 261.44 34.0326C261.577 33.9749 261.7 33.8902 261.802 33.7838C261.905 33.6774 261.985 33.5514 262.038 33.4132C262.091 33.2751 262.115 33.1278 262.11 32.98ZM258.64 32.98C258.628 32.5106 258.756 32.0483 259.007 31.6517C259.259 31.2551 259.622 30.9421 260.052 30.7524C260.481 30.5627 260.957 30.5048 261.42 30.5862C261.882 30.6676 262.31 30.8845 262.649 31.2094C262.988 31.5343 263.223 31.9526 263.324 32.4112C263.425 32.8697 263.387 33.348 263.216 33.7851C263.044 34.2223 262.747 34.5987 262.362 34.8667C261.976 35.1346 261.519 35.2819 261.05 35.29C260.741 35.2994 260.434 35.2465 260.146 35.1345C259.858 35.0225 259.596 34.8537 259.375 34.6381C259.153 34.4225 258.978 34.1646 258.859 33.8797C258.739 33.5949 258.678 33.2889 258.68 32.98" fill="white"/>
<path d="M265.63 29.06H264.3V35.28H265.63V29.06Z" fill="white"/>
<path d="M266.96 30.84H268.28V35.29H266.96V30.84ZM266.88 29.34C266.88 29.1917 266.924 29.0467 267.006 28.9233C267.089 28.8 267.206 28.7039 267.343 28.6471C267.48 28.5903 267.631 28.5755 267.776 28.6044C267.922 28.6334 268.055 28.7048 268.16 28.8097C268.265 28.9146 268.337 29.0482 268.366 29.1937C268.395 29.3392 268.38 29.49 268.323 29.627C268.266 29.7641 268.17 29.8812 268.047 29.9636C267.923 30.046 267.778 30.09 267.63 30.09C267.432 30.0874 267.243 30.0076 267.103 29.8675C266.962 29.7274 266.883 29.5381 266.88 29.34Z" fill="white"/>
<path d="M272.07 31.87H271.24V35.28H269.9V31.87H269.06V30.84H269.9V29.24H271.24V30.84H272.07V31.87Z" fill="white"/>
<path d="M274.77 30.27L274.28 29.74L275.71 28.2L276.35 28.91L274.77 30.27ZM273.77 32.38H275.66C275.615 32.1773 275.501 31.997 275.336 31.8707C275.171 31.7444 274.967 31.6804 274.76 31.69C274.541 31.6793 274.324 31.741 274.143 31.8657C273.962 31.9904 273.828 32.1712 273.76 32.38M277.01 33.23H273.7C273.715 33.5041 273.837 33.7615 274.038 33.948C274.24 34.1345 274.506 34.2356 274.78 34.23C274.984 34.2345 275.185 34.1828 275.361 34.0805C275.538 33.9781 275.683 33.8292 275.78 33.65L276.83 34.08C276.641 34.4609 276.343 34.7777 275.975 34.9911C275.607 35.2044 275.185 35.3049 274.76 35.28C274.457 35.2833 274.156 35.2268 273.874 35.1137C273.593 35.0007 273.336 34.8333 273.119 34.6211C272.902 34.4089 272.73 34.1561 272.61 33.8771C272.491 33.5981 272.428 33.2984 272.425 32.995C272.422 32.6916 272.478 32.3906 272.591 32.1091C272.704 31.8276 272.872 31.5711 273.084 31.3543C273.296 31.1374 273.549 30.9645 273.828 30.8454C274.107 30.7263 274.407 30.6633 274.71 30.66C275.017 30.6371 275.326 30.6795 275.615 30.7846C275.905 30.8896 276.169 31.0548 276.39 31.2692C276.611 31.4837 276.784 31.7426 276.898 32.0289C277.012 32.3152 277.064 32.6223 277.05 32.93L277.01 33.23Z" fill="white"/>
<path d="M277.6 32.96C277.597 32.6516 277.657 32.3458 277.775 32.061C277.893 31.7762 278.068 31.5181 278.288 31.3024C278.508 31.0867 278.77 30.9177 279.057 30.8056C279.345 30.6935 279.652 30.6406 279.96 30.65C280.414 30.6433 280.86 30.7732 281.24 31.0228C281.62 31.2724 281.916 31.6303 282.09 32.05L280.99 32.52C280.889 32.2855 280.71 32.0932 280.483 31.9753C280.257 31.8574 279.996 31.8213 279.746 31.873C279.496 31.9247 279.272 32.061 279.11 32.259C278.949 32.457 278.861 32.7046 278.861 32.96C278.861 33.2154 278.949 33.463 279.11 33.661C279.272 33.859 279.496 33.9953 279.746 34.047C279.996 34.0987 280.257 34.0626 280.483 33.9447C280.71 33.8268 280.889 33.6345 280.99 33.4L282.09 33.86C281.918 34.2814 281.623 34.6408 281.242 34.8907C280.862 35.1407 280.415 35.2694 279.96 35.26C279.653 35.268 279.347 35.2144 279.061 35.1025C278.775 34.9905 278.515 34.8223 278.295 34.6079C278.075 34.3936 277.9 34.1373 277.781 33.8543C277.661 33.5712 277.6 33.2672 277.6 32.96Z" fill="white"/>
<path d="M287.11 32.44V35.29H285.78V32.61C285.783 32.5143 285.766 32.4189 285.73 32.3301C285.694 32.2413 285.64 32.161 285.571 32.0942C285.503 32.0274 285.421 31.9756 285.331 31.9422C285.241 31.9088 285.146 31.8944 285.05 31.9C284.949 31.8973 284.848 31.915 284.754 31.9521C284.661 31.9892 284.575 32.045 284.503 32.116C284.431 32.1869 284.374 32.2717 284.336 32.3652C284.298 32.4587 284.279 32.559 284.28 32.66V35.29H282.95V30.84H284.28V31.29C284.437 31.1188 284.629 30.983 284.843 30.8917C285.057 30.8003 285.288 30.7554 285.52 30.76C285.735 30.7638 285.948 30.8106 286.145 30.8975C286.342 30.9844 286.52 31.1098 286.668 31.2662C286.816 31.4226 286.931 31.607 287.007 31.8085C287.083 32.0101 287.118 32.2248 287.11 32.44Z" fill="white"/>
<path d="M288.32 30.84H289.64V35.29H288.32V30.84ZM288.24 29.75C288.261 29.5673 288.349 29.3987 288.486 29.2764C288.624 29.1541 288.801 29.0865 288.985 29.0865C289.169 29.0865 289.346 29.1541 289.484 29.2764C289.621 29.3987 289.709 29.5673 289.73 29.75C289.742 29.8551 289.732 29.9616 289.7 30.0624C289.668 30.1633 289.615 30.2563 289.545 30.3353C289.475 30.4143 289.388 30.4775 289.292 30.5208C289.195 30.5641 289.091 30.5865 288.985 30.5865C288.879 30.5865 288.775 30.5641 288.678 30.5208C288.582 30.4775 288.495 30.4143 288.425 30.3353C288.355 30.2563 288.302 30.1633 288.27 30.0624C288.238 29.9616 288.228 29.8551 288.24 29.75Z" fill="white"/>
<path d="M290.57 32.96C290.579 32.4242 290.77 31.9074 291.113 31.4954C291.455 31.0834 291.929 30.8008 292.454 30.6946C292.979 30.5884 293.525 30.6649 294.001 30.9114C294.477 31.1579 294.854 31.5597 295.07 32.05L293.96 32.52C293.859 32.2855 293.68 32.0932 293.453 31.9753C293.227 31.8574 292.966 31.8213 292.716 31.873C292.466 31.9247 292.242 32.061 292.08 32.259C291.919 32.457 291.831 32.7046 291.831 32.96C291.831 33.2154 291.919 33.463 292.08 33.661C292.242 33.859 292.466 33.9953 292.716 34.047C292.966 34.0987 293.227 34.0626 293.453 33.9447C293.68 33.8268 293.859 33.6345 293.96 33.4L295.07 33.86C294.854 34.3497 294.478 34.751 294.003 34.9977C293.528 35.2444 292.983 35.3217 292.459 35.2168C291.934 35.1118 291.461 34.831 291.117 34.4206C290.774 34.0103 290.581 33.495 290.57 32.96Z" fill="white"/>
<path d="M299.16 32.95C299.154 32.7246 299.081 32.5061 298.951 32.3221C298.821 32.138 298.639 31.9967 298.429 31.916C298.218 31.8353 297.988 31.8188 297.769 31.8686C297.549 31.9184 297.349 32.0322 297.193 32.1958C297.038 32.3593 296.935 32.5652 296.897 32.7874C296.859 33.0096 296.887 33.2381 296.979 33.444C297.071 33.65 297.221 33.8241 297.412 33.9444C297.603 34.0648 297.825 34.1259 298.05 34.12C298.202 34.1201 298.353 34.0896 298.493 34.0304C298.634 33.9713 298.761 33.8846 298.867 33.7756C298.973 33.6665 299.056 33.5373 299.112 33.3955C299.167 33.2537 299.194 33.1022 299.19 32.95M300.44 30.74V35.18H299.22V34.57C299.052 34.8002 298.83 34.9854 298.574 35.1093C298.318 35.2332 298.035 35.2918 297.75 35.28C297.16 35.2413 296.606 34.9795 296.202 34.5477C295.798 34.1159 295.573 33.5465 295.573 32.955C295.573 32.3635 295.798 31.7941 296.202 31.3623C296.606 30.9305 297.16 30.6687 297.75 30.63C298.016 30.6209 298.281 30.673 298.523 30.7823C298.766 30.8915 298.98 31.0549 299.15 31.26V30.74H300.44Z" fill="white"/>
<path d="M307.28 32.96C307.274 32.7359 307.202 32.5185 307.073 32.335C306.945 32.1516 306.765 32.0101 306.556 31.9284C306.347 31.8467 306.119 31.8284 305.9 31.8757C305.681 31.923 305.48 32.0339 305.324 32.1944C305.167 32.355 305.062 32.5581 305.02 32.7784C304.979 32.9987 305.003 33.2263 305.09 33.4329C305.177 33.6395 305.323 33.8158 305.51 33.9398C305.697 34.0638 305.916 34.1299 306.14 34.13C306.292 34.1301 306.443 34.0996 306.583 34.0405C306.724 33.9813 306.851 33.8946 306.957 33.7856C307.063 33.6765 307.146 33.5473 307.202 33.4055C307.257 33.2637 307.284 33.1122 307.28 32.96ZM308.53 28.96V35.17H307.31L307.26 34.56C307.094 34.7915 306.872 34.9777 306.615 35.1017C306.358 35.2257 306.075 35.2836 305.79 35.27C305.2 35.2313 304.646 34.9695 304.242 34.5377C303.838 34.1059 303.613 33.5365 303.613 32.945C303.613 32.3535 303.838 31.7841 304.242 31.3523C304.646 30.9205 305.2 30.6587 305.79 30.62C306.056 30.6086 306.322 30.6597 306.565 30.7691C306.808 30.8784 307.022 31.0431 307.19 31.25V28.98L308.53 28.96Z" fill="white"/>
<path d="M310.85 32.37H312.75C312.702 32.1675 312.584 31.988 312.418 31.8622C312.253 31.7364 312.048 31.672 311.84 31.68C311.621 31.6693 311.404 31.731 311.223 31.8557C311.042 31.9804 310.908 32.1612 310.84 32.37M314.09 33.22H310.78C310.795 33.4941 310.917 33.7515 311.118 33.938C311.32 34.1245 311.586 34.2256 311.86 34.22C312.064 34.2245 312.265 34.1728 312.441 34.0705C312.618 33.9681 312.763 33.8192 312.86 33.64L313.91 34.07C313.721 34.4509 313.423 34.7677 313.055 34.9811C312.687 35.1944 312.265 35.2949 311.84 35.27C311.537 35.2733 311.236 35.2168 310.954 35.1037C310.673 34.9907 310.416 34.8233 310.199 34.6111C309.761 34.1826 309.512 33.5977 309.505 32.985C309.498 32.3724 309.735 31.7822 310.164 31.3443C310.592 30.9064 311.177 30.6566 311.79 30.65C312.091 30.6359 312.393 30.6846 312.674 30.793C312.956 30.9013 313.212 31.0669 313.426 31.2794C313.641 31.4918 313.808 31.7464 313.919 32.0271C314.03 32.3078 314.081 32.6085 314.07 32.91L314.09 33.22Z" fill="white"/>
<path d="M316.35 29.06H315.02V35.28H316.35V29.06Z" fill="white"/>
<path d="M322.66 34.1V35.28H319.33V29.06H320.67V34.1H322.66Z" fill="white"/>
<path d="M323.38 30.84H324.7V35.29H323.38V30.84ZM323.3 29.75C323.321 29.5673 323.409 29.3987 323.546 29.2764C323.684 29.1541 323.861 29.0865 324.045 29.0865C324.229 29.0865 324.406 29.1541 324.544 29.2764C324.681 29.3987 324.769 29.5673 324.79 29.75C324.802 29.8551 324.792 29.9616 324.76 30.0624C324.728 30.1633 324.675 30.2563 324.605 30.3353C324.535 30.4143 324.448 30.4775 324.352 30.5208C324.255 30.5641 324.151 30.5865 324.045 30.5865C323.939 30.5865 323.835 30.5641 323.738 30.5208C323.642 30.4775 323.555 30.4143 323.485 30.3353C323.415 30.2563 323.362 30.1633 323.33 30.0624C323.298 29.9616 323.288 29.8551 323.3 29.75Z" fill="white"/>
<path d="M328.48 31.87H327.65V35.28H326.32V31.87H325.48V30.84H326.32V29.24H327.65V30.84H328.48V31.87Z" fill="white"/>
<path d="M332.05 32.96C332.065 32.8074 332.047 32.6535 331.999 32.508C331.95 32.3626 331.872 32.2288 331.769 32.1154C331.666 32.002 331.54 31.9113 331.4 31.8493C331.26 31.7873 331.108 31.7552 330.955 31.7552C330.802 31.7552 330.65 31.7873 330.51 31.8493C330.37 31.9113 330.244 32.002 330.141 32.1154C330.038 32.2288 329.96 32.3626 329.911 32.508C329.863 32.6535 329.845 32.8074 329.86 32.96C329.845 33.1126 329.863 33.2666 329.911 33.412C329.96 33.5575 330.038 33.6912 330.141 33.8046C330.244 33.9181 330.37 34.0087 330.51 34.0707C330.65 34.1327 330.802 34.1648 330.955 34.1648C331.108 34.1648 331.26 34.1327 331.4 34.0707C331.54 34.0087 331.666 33.9181 331.769 33.8046C331.872 33.6912 331.95 33.5575 331.999 33.412C332.047 33.2666 332.065 33.1126 332.05 32.96ZM328.59 32.96C328.576 32.4885 328.703 32.0236 328.955 31.6248C329.207 31.2259 329.572 30.9113 330.003 30.7211C330.435 30.531 330.914 30.4739 331.378 30.5573C331.842 30.6407 332.271 30.8607 332.609 31.1892C332.948 31.5177 333.181 31.9397 333.278 32.4013C333.375 32.8628 333.333 33.3429 333.155 33.7801C332.978 34.2172 332.675 34.5916 332.284 34.8552C331.893 35.1188 331.432 35.2598 330.96 35.26C330.652 35.2694 330.345 35.2168 330.058 35.1054C329.771 34.9941 329.509 34.8261 329.288 34.6116C329.067 34.3971 328.891 34.1404 328.772 33.8567C328.652 33.5729 328.59 33.268 328.59 32.96Z" fill="white"/>
<path d="M337.12 30.99L336.67 32.13C336.531 32.0455 336.372 32.0006 336.21 32C336.061 32.0135 335.916 32.057 335.785 32.1278C335.653 32.1986 335.537 32.2953 335.444 32.412C335.35 32.5288 335.282 32.6632 335.241 32.8072C335.201 32.9512 335.191 33.1018 335.21 33.25V35.25H333.85V30.84H335.18V31.56C335.282 31.3188 335.454 31.1133 335.673 30.9692C335.891 30.8251 336.148 30.7488 336.41 30.75C336.667 30.7461 336.918 30.8308 337.12 30.99Z" fill="white"/>
<path d="M340.87 32.95C340.864 32.7259 340.792 32.5085 340.663 32.325C340.535 32.1416 340.355 32.0001 340.146 31.9184C339.937 31.8367 339.709 31.8184 339.49 31.8657C339.271 31.913 339.07 32.0239 338.914 32.1844C338.757 32.345 338.652 32.5481 338.61 32.7684C338.569 32.9887 338.593 33.2163 338.68 33.4229C338.767 33.6295 338.913 33.8058 339.1 33.9298C339.287 34.0538 339.506 34.1199 339.73 34.12C339.882 34.1201 340.033 34.0896 340.173 34.0304C340.314 33.9713 340.441 33.8846 340.547 33.7756C340.653 33.6665 340.736 33.5373 340.792 33.3955C340.847 33.2537 340.874 33.1022 340.87 32.95ZM342.12 30.74V35.18H340.9V34.57C340.732 34.8002 340.51 34.9854 340.254 35.1093C339.998 35.2332 339.715 35.2918 339.43 35.28C338.84 35.2413 338.286 34.9795 337.882 34.5477C337.478 34.1159 337.253 33.5465 337.253 32.955C337.253 32.3635 337.478 31.7941 337.882 31.3623C338.286 30.9305 338.84 30.6687 339.43 30.63C339.696 30.6209 339.961 30.673 340.203 30.7823C340.446 30.8915 340.66 31.0549 340.83 31.26V30.74H342.12Z" fill="white"/>
<path d="M344.36 29.06H343.03V35.28H344.36V29.06Z" fill="white"/>
<path d="M227.05 32.25C226.095 32.248 225.162 31.9631 224.369 31.4311C223.576 30.8992 222.959 30.1442 222.595 29.2614C222.231 28.3787 222.137 27.4079 222.324 26.4716C222.512 25.5353 222.972 24.6756 223.648 24.0012C224.324 23.3267 225.185 22.8676 226.121 22.6821C227.058 22.4965 228.029 22.5928 228.911 22.9586C229.793 23.3245 230.546 23.9436 231.077 24.7376C231.607 25.5317 231.89 26.4651 231.89 27.42C231.89 28.0551 231.765 28.684 231.521 29.2707C231.278 29.8573 230.921 30.3902 230.472 30.8389C230.022 31.2875 229.489 31.6431 228.901 31.8852C228.314 32.1274 227.685 32.2513 227.05 32.25ZM227.05 19.6C225.503 19.6 223.991 20.0586 222.705 20.9179C221.419 21.7772 220.417 22.9985 219.825 24.4274C219.233 25.8563 219.079 27.4287 219.38 28.9456C219.682 30.4625 220.427 31.8559 221.52 32.9496C222.614 34.0432 224.007 34.788 225.524 35.0897C227.041 35.3915 228.614 35.2366 230.043 34.6447C231.471 34.0529 232.693 33.0506 233.552 31.7646C234.411 30.4786 234.87 28.9667 234.87 27.42C234.87 25.346 234.046 23.357 232.58 21.8904C231.113 20.4239 229.124 19.6 227.05 19.6Z" fill="white"/>
<path d="M208.25 32.28C207.291 32.2879 206.351 32.0108 205.55 31.4838C204.749 30.9568 204.122 30.2037 203.75 29.3201C203.378 28.4364 203.276 27.462 203.458 26.5205C203.64 25.579 204.098 24.7129 204.773 24.032C205.449 23.3511 206.311 22.8862 207.251 22.6961C208.191 22.5061 209.166 22.5996 210.053 22.9647C210.94 23.3299 211.698 23.9502 212.231 24.7469C212.765 25.5437 213.05 26.481 213.05 27.44C213.05 28.7219 212.541 29.9515 211.636 30.8589C210.73 31.7663 209.502 32.2774 208.22 32.28M208.22 19.62C206.163 19.6278 204.192 20.4456 202.734 21.8962C201.276 23.3467 200.448 25.3133 200.43 27.37V44.66H203.57V33.66C204.562 34.3997 205.716 34.8933 206.937 35.1001C208.157 35.3069 209.409 35.221 210.59 34.8496C211.771 34.4781 212.847 33.8316 213.729 32.9633C214.611 32.095 215.274 31.0297 215.665 29.855C216.055 28.6803 216.161 27.4297 215.973 26.2062C215.786 24.9826 215.311 23.821 214.587 22.8169C213.863 21.8128 212.911 20.9949 211.809 20.4304C210.708 19.866 209.488 19.5711 208.25 19.57" fill="white"/>
<path d="M246.05 32.2C244.724 32.2 243.452 31.6732 242.514 30.7355C241.577 29.7979 241.05 28.5261 241.05 27.2V10.29H237.98V27.29C237.98 29.4117 238.823 31.4466 240.323 32.9469C241.823 34.4471 243.858 35.29 245.98 35.29H247.34V32.2H246.05Z" fill="white"/>
<path d="M167.67 24C168.128 23.5497 168.672 23.1957 169.269 22.9589C169.866 22.7221 170.504 22.6073 171.147 22.6213C171.789 22.6353 172.422 22.7778 173.008 23.0403C173.594 23.3029 174.122 23.6802 174.56 24.15L172.65 25.89H166.48C166.726 25.1768 167.133 24.53 167.67 24ZM194.95 22C193.97 21.0195 192.747 20.3175 191.406 19.966C190.065 19.6145 188.655 19.6263 187.32 20C186.038 20.394 184.864 21.0784 183.89 22L174.51 30.71C174.03 31.2174 173.465 31.6371 172.84 31.95C172.166 32.2527 171.428 32.3866 170.69 32.34C169.536 32.2597 168.45 31.7662 167.63 30.95C166.99 30.3297 166.542 29.5381 166.34 28.67H173.27L178.05 24.16C177.619 23.3743 177.109 22.6339 176.53 21.95C175.438 20.9036 174.062 20.2012 172.574 19.93C171.085 19.6589 169.55 19.8309 168.159 20.4248C166.768 21.0187 165.582 22.0083 164.748 23.2706C163.914 24.5329 163.47 26.0123 163.47 27.525C163.47 29.0377 163.914 30.5171 164.748 31.7794C165.582 33.0417 166.768 34.0313 168.159 34.6252C169.55 35.2191 171.085 35.3911 172.574 35.12C174.062 34.8488 175.438 34.1464 176.53 33.1L186.43 23.91C187.299 23.101 188.451 22.6647 189.638 22.6946C190.825 22.7245 191.953 23.2182 192.78 24.07C193.555 24.8438 194.045 25.8575 194.169 26.9456C194.294 28.0337 194.045 29.1318 193.465 30.0606C192.884 30.9893 192.006 31.6937 190.974 32.0587C189.941 32.4237 188.815 32.4277 187.78 32.07V35.16C189.428 35.4949 191.139 35.2898 192.661 34.5752C194.183 33.8606 195.434 32.6746 196.229 31.1929C197.024 29.7113 197.32 28.013 197.073 26.3498C196.826 24.6867 196.05 23.1473 194.86 21.96" fill="white"/>
<path d="M10.76 25.77H13.05V34.77C13.05 37.68 11.59 39.08 9.17 39.08C6.75 39.08 5.31 37.54 5.31 34.66V25.77H7.57V22.89H0.0500031V25.77H2.05V34.77C2.05 39.62 4.93001 41.96 9.13 41.96C13.33 41.96 16.13 39.62 16.13 34.71V25.71H18.13V22.89H10.76V25.77Z" fill="white"/>
<path d="M19.49 28.25H22.55V25.68H26.03V38.78H23.69V41.66H31.59V38.78H29.25V25.68H32.73V28.25H35.79V22.88H19.49V28.25Z" fill="white"/>
<path d="M48.46 38.81H42.87V33.5H48.55V30.76H42.87V25.74H48.43V28.25H51.51V22.88H37.5V25.77H39.64V38.78H37.5V41.66H51.54V36.3H48.46V38.81Z" fill="white"/>
<path d="M71.12 25.8C70.2303 24.8168 69.1479 24.0271 67.94 23.48C67.0858 23.076 66.1756 22.8029 65.24 22.67H64.9L64.44 22.62H64.28C64.0467 22.62 63.8167 22.62 63.59 22.62H63.53C63.21 22.62 62.9 22.62 62.59 22.62H62.39C62.22 22.62 62.06 22.62 61.89 22.68C59.7077 22.912 57.6808 23.9181 56.1765 25.516C54.6722 27.1138 53.7901 29.1977 53.69 31.39C53.69 31.69 53.69 31.98 53.69 32.29C53.69 32.6 53.69 32.89 53.69 33.18C53.786 35.3736 54.6667 37.4597 56.1718 39.0584C57.6769 40.6571 59.7062 41.662 61.89 41.89L62.39 41.96H62.59C62.9 41.96 63.21 41.96 63.53 41.96H63.59H64.28H64.44H64.9H65.24C66.1766 41.8319 67.0875 41.5586 67.94 41.15C69.1474 40.6066 70.2299 39.8202 71.12 38.84V35.08H68.05V37.37C67.5239 37.8 66.942 38.1565 66.32 38.43C65.743 38.6784 65.1335 38.8434 64.51 38.92H64.24H63.79H63.55C61.8087 38.8529 60.161 38.114 58.9528 36.8582C57.7445 35.6025 57.0696 33.9276 57.0696 32.185C57.0696 30.4424 57.7445 28.7675 58.9528 27.5118C60.161 26.2561 61.8087 25.5171 63.55 25.45H63.79C63.95 25.45 64.09 25.45 64.24 25.45H64.51C65.1331 25.5346 65.7419 25.7028 66.32 25.95C66.9388 26.2044 67.5207 26.5407 68.05 26.95V29.28H71.14V25.8H71.12Z" fill="white"/>
<path d="M3.18 48.37V46.27H3.63V48.27C3.65694 48.4345 3.64468 48.6031 3.59422 48.762C3.54377 48.9209 3.45654 49.0657 3.33963 49.1845C3.22271 49.3034 3.07941 49.393 2.92136 49.4461C2.7633 49.4992 2.59496 49.5142 2.43 49.49C2.27238 49.5084 2.11265 49.4931 1.96138 49.4452C1.81012 49.3972 1.67077 49.3176 1.55258 49.2117C1.43439 49.1058 1.34006 48.976 1.27582 48.8309C1.21159 48.6858 1.17893 48.5287 1.18 48.37V46.37H1.69V48.37C1.69 49.01 2.01 49.18 2.46 49.18C2.91 49.18 3.18 49 3.18 48.37Z" fill="white"/>
<path d="M4.74001 46.27H5.32001L6.73001 48.65H6.74001V46.27H7.18001V49.51H6.71001L5.18001 46.91H5.17001V49.51H4.74001V46.27Z" fill="white"/>
<path d="M8.82 46.27H8.31V49.51H8.82V46.27Z" fill="white"/>
<path d="M9.75 46.42V46.27H10.22L11.09 48.89H11.1L11.97 46.27H12.4V46.42L11.33 49.51H10.81L9.75 46.42Z" fill="white"/>
<path d="M13.31 46.27H15.3V46.66H13.81V47.66H14.9V48.03H13.81V49.13H15.35V49.51H13.31V46.27Z" fill="white"/>
<path d="M16.82 47.79H17.26C17.7 47.79 17.92 47.63 17.92 47.22C17.92 46.81 17.69 46.65 17.26 46.65H16.82V47.79ZM17.43 48.15H16.82V49.5H16.31V46.27H17.31C18.03 46.27 18.47 46.56 18.47 47.19C18.4875 47.3728 18.4453 47.5564 18.3498 47.7132C18.2542 47.87 18.1105 47.9917 17.94 48.06L18.64 49.36V49.51H18.18L17.43 48.15Z" fill="white"/>
<path d="M19.37 49.27V48.86H19.54C19.6438 48.9642 19.7693 49.0442 19.9076 49.0943C20.0459 49.1445 20.1935 49.1635 20.34 49.15C20.76 49.15 21.01 48.98 21.01 48.63C21.01 48.28 20.68 48.17 20.27 48.06C19.7 47.89 19.42 47.66 19.42 47.14C19.42 46.62 19.82 46.24 20.42 46.24C20.7221 46.2267 21.0214 46.3033 21.28 46.46V46.85H21.11C20.9208 46.6977 20.6826 46.6195 20.44 46.63C20.02 46.63 19.83 46.8 19.83 47.1C19.83 47.4 20.07 47.52 20.46 47.63C21.13 47.81 21.46 48 21.46 48.58C21.46 49.16 21.05 49.58 20.35 49.58C19.9965 49.5983 19.6463 49.5037 19.35 49.31" fill="white"/>
<path d="M22.94 46.27H22.43V49.51H22.94V46.27Z" fill="white"/>
<path d="M24.99 49.13C25.75 49.13 26.11 48.78 26.11 47.89C26.11 47 25.75 46.65 24.99 46.65H24.58V49.13H24.99ZM24.05 46.27H25.05C25.2696 46.2364 25.494 46.2547 25.7052 46.3235C25.9164 46.3924 26.1085 46.5098 26.2661 46.6664C26.4236 46.823 26.5422 47.0144 26.6124 47.2252C26.6826 47.4359 26.7023 47.6602 26.67 47.88C26.7018 48.1014 26.6815 48.3273 26.6109 48.5395C26.5402 48.7518 26.421 48.9446 26.2628 49.1028C26.1047 49.261 25.9118 49.3802 25.6995 49.4509C25.4873 49.5215 25.2614 49.5418 25.04 49.51H24.05V46.27Z" fill="white"/>
<path d="M28.05 48.23H29.05L28.58 46.8L28.05 48.23ZM27.24 49.37L28.31 46.28H28.84L29.91 49.37V49.52H29.43L29.13 48.61H27.94L27.65 49.52H27.24V49.37Z" fill="white"/>
<path d="M31.74 49.13C32.51 49.13 32.86 48.78 32.86 47.89C32.86 47 32.51 46.65 31.74 46.65H31.33V49.13H31.74ZM30.83 46.27H31.76C31.9796 46.2364 32.204 46.2547 32.4152 46.3235C32.6264 46.3924 32.8185 46.5098 32.9761 46.6664C33.1336 46.823 33.2522 47.0144 33.3224 47.2252C33.3926 47.4359 33.4123 47.6602 33.38 47.88C33.4122 48.1024 33.3918 48.3292 33.3206 48.5424C33.2494 48.7555 33.1293 48.949 32.9699 49.1075C32.8106 49.2659 32.6163 49.3848 32.4027 49.4547C32.1892 49.5246 31.9622 49.5435 31.74 49.51H30.83V46.27Z" fill="white"/>
<path d="M36.67 49.13C37.44 49.13 37.79 48.78 37.79 47.89C37.79 47 37.44 46.65 36.67 46.65H36.26V49.13H36.67ZM35.76 46.27H36.69C36.9096 46.2364 37.134 46.2547 37.3452 46.3235C37.5564 46.3924 37.7485 46.5098 37.9061 46.6664C38.0636 46.823 38.1822 47.0144 38.2524 47.2252C38.3226 47.4359 38.3423 47.6602 38.31 47.88C38.3422 48.1024 38.3218 48.3292 38.2506 48.5424C38.1794 48.7555 38.0593 48.949 37.8999 49.1075C37.7406 49.2659 37.5463 49.3848 37.3327 49.4547C37.1192 49.5246 36.8922 49.5435 36.67 49.51H35.76V46.27Z" fill="white"/>
<path d="M39.27 46.27H41.26V46.66H39.77V47.66H40.86V48.03H39.77V49.13H41.31V49.51H39.27V46.27Z" fill="white"/>
<path d="M44.2 46.27H43.69V49.51H44.2V46.27Z" fill="white"/>
<path d="M45.34 46.27H45.92L47.33 48.65H47.34V46.27H47.78V49.51H47.31L45.78 46.91H45.77V49.51H45.34V46.27Z" fill="white"/>
<path d="M48.74 47.89C48.7119 47.6778 48.7308 47.462 48.7953 47.2579C48.8599 47.0538 48.9685 46.8664 49.1135 46.709C49.2586 46.5515 49.4364 46.4279 49.6346 46.3469C49.8327 46.2658 50.0462 46.2293 50.26 46.24C50.5811 46.227 50.8995 46.3031 51.18 46.46V46.88H51.05C50.9509 46.7921 50.8354 46.7247 50.7101 46.6817C50.5848 46.6388 50.4522 46.6212 50.32 46.63C49.72 46.63 49.32 47 49.32 47.87C49.32 48.74 49.65 49.17 50.26 49.17C50.4624 49.1774 50.6639 49.1398 50.85 49.06V48.22H50.31V47.87H51.31V49.29C50.9735 49.4637 50.5986 49.5497 50.22 49.54C49.31 49.54 48.75 48.97 48.75 47.89" fill="white"/>
<path d="M52.39 46.27H54.37V46.66H52.89V47.66H53.98V48.03H52.89V49.13H54.42V49.51H52.39V46.27Z" fill="white"/>
<path d="M55.38 46.27H55.96L57.37 48.65H57.38V46.27H57.82V49.51H57.35L55.82 46.91H55.81V49.51H55.38V46.27Z" fill="white"/>
<path d="M59.46 46.27H58.95V49.51H59.46V46.27Z" fill="white"/>
<path d="M60.6 46.27H62.59V46.66H61.1V47.66H62.19V48.03H61.1V49.13H62.64V49.51H60.6V46.27Z" fill="white"/>
<path d="M64.1 47.79H64.55C64.99 47.79 65.21 47.63 65.21 47.22C65.21 46.81 64.97 46.65 64.55 46.65H64.1V47.79ZM64.71 48.15H64.1V49.5H63.6V46.27H64.6C65.32 46.27 65.76 46.56 65.76 47.19C65.7775 47.3728 65.7353 47.5564 65.6398 47.7132C65.5442 47.87 65.4005 47.9917 65.23 48.06L65.93 49.36V49.51H65.47L64.71 48.15Z" fill="white"/>
<path d="M66.97 46.05L67.17 45.61H67.64V45.76L67.24 46.17H66.97V46.05ZM66.87 46.27H67.38V49.51H66.87V46.27Z" fill="white"/>
<path d="M69.13 48.23H70.05L69.58 46.8L69.13 48.23ZM68.3 49.37L69.37 46.28H69.91L70.97 49.37V49.52H70.5L70.2 48.61H69.05L68.75 49.52H68.34L68.3 49.37Z" fill="white"/>
<path d="M36.69 54.91V53.62L35.7 51.83V51.67H36.15L36.95 53.14L37.73 51.67H38.13V51.83L37.19 53.6V54.91H36.69Z" fill="white"/>
<path d="M41.16 54.91V52.05H40.23V51.67H42.6V52.05H41.67V54.91H41.16Z" fill="white"/>
<path d="M43.51 51.67H45.5V52.06H44.01V53.07H45.1V53.44H44.01V54.53H45.55V54.91H43.51V51.67Z" fill="white"/>
<path d="M46.28 53.3C46.2632 53.0107 46.3274 52.7225 46.4652 52.4677C46.6031 52.2128 46.8092 52.0014 47.0604 51.8571C47.3117 51.7128 47.5981 51.6413 47.8877 51.6506C48.1773 51.66 48.4586 51.7498 48.7 51.91V52.3H48.5C48.4058 52.2068 48.293 52.1345 48.1689 52.088C48.0448 52.0415 47.9123 52.0217 47.78 52.03C47.19 52.03 46.78 52.46 46.78 53.28C46.78 54.1 47.12 54.57 47.72 54.57C47.8763 54.5749 48.0318 54.5452 48.1753 54.483C48.3188 54.4208 48.4468 54.3275 48.55 54.21H48.72V54.6C48.439 54.832 48.0844 54.9562 47.72 54.95C46.86 54.95 46.28 54.35 46.28 53.3Z" fill="white"/>
<path d="M49.7 51.67H50.27L51.69 54.06H51.7V51.67H52.13V54.91H51.67L50.13 52.32V54.91H49.7V51.67Z" fill="white"/>
<path d="M55.51 53.31C55.51 52.45 55.1 52.02 54.56 52.02C54.02 52.02 53.56 52.45 53.56 53.31C53.56 54.17 53.96 54.57 54.56 54.57C55.16 54.57 55.51 54.17 55.51 53.31ZM53.09 53.31C53.1228 53.0264 53.2369 52.7584 53.4186 52.5382C53.6002 52.318 53.8417 52.155 54.1139 52.0689C54.3861 51.9828 54.6774 51.9773 54.9526 52.053C55.2279 52.1287 55.4754 52.2823 55.6653 52.4955C55.8552 52.7086 55.9794 52.9722 56.0229 53.2543C56.0664 53.5364 56.0274 53.8251 55.9106 54.0856C55.7938 54.3461 55.6041 54.5672 55.3645 54.7224C55.1249 54.8775 54.8455 54.96 54.56 54.96C54.3513 54.96 54.145 54.9158 53.9546 54.8304C53.7642 54.745 53.594 54.6203 53.4551 54.4645C53.3163 54.3087 53.212 54.1253 53.1491 53.9263C53.0862 53.7273 53.066 53.5173 53.09 53.31Z" fill="white"/>
<path d="M56.98 54.91V51.67H57.48V54.53H58.93V54.91H56.98Z" fill="white"/>
<path d="M61.9 53.31C61.9 52.45 61.49 52.02 60.95 52.02C60.41 52.02 59.95 52.45 59.95 53.31C59.95 54.17 60.35 54.57 60.95 54.57C61.55 54.57 61.9 54.17 61.9 53.31ZM59.48 53.31C59.5128 53.0264 59.6269 52.7584 59.8086 52.5382C59.9902 52.318 60.2317 52.155 60.5039 52.0689C60.7761 51.9828 61.0673 51.9773 61.3426 52.053C61.6179 52.1287 61.8654 52.2823 62.0553 52.4955C62.2452 52.7086 62.3694 52.9722 62.4129 53.2543C62.4564 53.5364 62.4174 53.8251 62.3006 54.0856C62.1838 54.3461 61.9941 54.5672 61.7545 54.7224C61.5149 54.8775 61.2355 54.96 60.95 54.96C60.7418 54.9584 60.5362 54.9132 60.3466 54.8273C60.1569 54.7414 59.9874 54.6167 59.8489 54.4612C59.7103 54.3057 59.606 54.123 59.5424 53.9247C59.4789 53.7264 59.4576 53.517 59.48 53.31Z" fill="white"/>
<path d="M63.21 53.3C63.1819 53.0878 63.2008 52.872 63.2653 52.6679C63.3299 52.4638 63.4385 52.2764 63.5835 52.119C63.7286 51.9616 63.9064 51.8379 64.1046 51.7569C64.3027 51.6758 64.5162 51.6394 64.73 51.65C65.0511 51.637 65.3695 51.7131 65.65 51.87V52.28H65.47C65.3702 52.1938 65.2543 52.1283 65.129 52.0871C65.0037 52.0459 64.8715 52.0299 64.74 52.04C64.14 52.04 63.74 52.4 63.74 53.28C63.74 54.16 64.07 54.58 64.68 54.58C64.8836 54.5904 65.0866 54.5491 65.27 54.46V53.63H64.72V53.27H65.72V54.7C65.3818 54.8691 65.0081 54.9548 64.63 54.95C63.72 54.95 63.16 54.38 63.16 53.3" fill="white"/>
<path d="M66.97 51.46L67.17 51.02H67.64V51.17L67.24 51.57H66.97V51.46ZM66.87 51.68H67.38V54.92H66.87V51.68Z" fill="white"/>
<path d="M69.13 53.64H70.05L69.59 52.21L69.13 53.64ZM68.3 54.77L69.37 51.68H69.91L70.98 54.77V54.92H70.5L70.2 54.01H69.05L68.76 54.92H68.34L68.3 54.77Z" fill="white"/>
<path d="M87.5 30.76L89.61 29.39V16.74L97.2 11.8L79.05 0V8.51L84.46 12.03V20.09L87.5 18.11V30.76Z" fill="white"/>
<path d="M115.36 6.42V0L97.2 11.8L98.01 12.32L114.48 1.62V5.94L105.67 11.67V15.86L114.48 10.13V14.36L107.81 18.7L108.62 19.22L115.36 14.84V8.52L106.55 14.24V12.14L115.36 6.42Z" fill="white"/>
<path d="M110.23 20.27L111.04 20.79L114.48 18.56V23.03L115.36 23.6V16.94L110.23 20.27Z" fill="white"/>
<path d="M97.2 11.8V35.15L115.36 46.95V36.41L105.49 30V27.7L115.36 34.11V23.6L97.2 11.8Z" fill="white"/>
<path d="M79.93 24.08L85.05 20.73L87.47 19.16V18.11L79.05 23.6V46.95L97.21 35.15V34.15L79.93 45.37V24.08ZM89.61 16.74V17.74L91.5 16.51L97.21 12.8V11.8L89.61 16.74Z" fill="white"/>
</g>
<defs>
<clipPath id="clip0_106_15">
<rect width="344.36" height="54.94" fill="white"/>
</clipPath>
</defs>
</svg>
