<svg id="Capa_1" data-name="Capa 1" xmlns="http://www.w3.org/2000/svg" viewBox="0 0 800 800"><defs><style>.cls-1{fill:#009FE3;}.cls-2{fill:#fff;}</style></defs><title>Icono</title><circle class="cls-1" cx="400" cy="400" r="400"/><path class="cls-2" d="M607.48,533.32v-1c-.47-8.33-5.35-15.59-12.31-18.47l.14-.47a17.85,17.85,0,0,0,1-4.79v-.47a20.61,20.61,0,0,0-2.31-9.22V372.69a8,8,0,0,0-7.88-7.89H583.2V346.23c7.15-6.5,11.72-18.11,14-35.43a197.62,197.62,0,0,0,1.9-26.35V251.27a19.57,19.57,0,0,0-19.57-19.53h-.43a30.57,30.57,0,0,0-3.8.15v-8.62a19.81,19.81,0,0,0-19.57-19.53h-.47a14.62,14.62,0,0,0-5.29.93c-3-7.12-10.19-12.15-17.57-12.15h-.47a19.52,19.52,0,0,0-18,12.08,14.47,14.47,0,0,0-4.87-.86h-.47c-4.13,0-7.11.74-9.31,2.31h-127a7.67,7.67,0,0,0-7.42,7.88v2.86H346.16c-6.95-7.15-18.54-11.73-35.41-14a205.58,205.58,0,0,0-26.3-1.89H250.8c-10.69,0-19.06,8.6-19.06,19.57V221a25.75,25.75,0,0,0,.18,3.8H222.8c-10.33,0-19.06,8.94-19.06,19.53v.47a23.06,23.06,0,0,0,.67,5.24,19.54,19.54,0,0,0-11.89,17.63v.47a18.57,18.57,0,0,0,11.9,17.67,25.71,25.71,0,0,0-.68,5.23v.43c0,2.29.31,6.46,2.31,9.34V427.31a7.67,7.67,0,0,0,7.42,7.88h2.86v18.64c-7.32,7.09-11.77,18.37-14,35.41a205.58,205.58,0,0,0-1.89,26.3v33.18A19.58,19.58,0,0,0,220,568.26h.47a31.33,31.33,0,0,0,4.23-.19v8.66c0,11,8.39,19.53,19.1,19.53h.94a18,18,0,0,0,4.78-.65,19.54,19.54,0,0,0,17.62,11.87h.94a19.08,19.08,0,0,0,17.66-11.88,25.17,25.17,0,0,0,4.77.67h.9a15.64,15.64,0,0,0,8.07-1.84H427.79a7.67,7.67,0,0,0,7.88-7.41v-2.86h18.61c6.5,7.15,18.09,11.73,35.34,14a137.22,137.22,0,0,0,24.55,1.9h35a19.81,19.81,0,0,0,19.53-19.57V580a31.34,31.34,0,0,0-.19-4.23h8.66c10.59,0,19.53-8.75,19.53-19.1v-.94a12.09,12.09,0,0,0-.91-4.86A19.55,19.55,0,0,0,607.48,533.32ZM541.3,457.71c-1.08-1.46-5.8-6-14.45-6-7.11,0-14.93,3.07-23.31,9.16a27.56,27.56,0,0,1-4.85,3.37V409h79.49v80H538.76c3.24-3.54,6.69-8.21,7.5-13.3C547.87,468.86,546,462,541.3,457.71Zm-43.08-64.87V379.63h79.53v13.21Zm-1.73-101.17a6.65,6.65,0,0,0,3.25-.84c2.64-1.07,4.09-3.67,4.09-7.31V222.33a3.85,3.85,0,0,1,3.8-3.8h.47a4,4,0,0,1,4.27,3.8V277.9a7.63,7.63,0,1,0,15.26,0V211.58a4,4,0,0,1,3.8-4.23h.94a4,4,0,0,1,3.8,4.23v66.79a7.63,7.63,0,1,0,15.26,0V221.66c1.2-2.8,2.47-3.13,3.33-3.13h.94a3.85,3.85,0,0,1,3.8,3.8v56a7.65,7.65,0,1,0,15.3,0v-28a4,4,0,0,1,4.27-3.8h.43a3.81,3.81,0,0,1,3.8,3.8V284c.47,17.72-3.34,46-11.36,50.6-2.21,1.06-3.58,3.65-3.58,6.77v22H508.49V349.35a10.57,10.57,0,0,0-2.31-6l-.56-.7c-17.32-13.33-19.47-20.21-21-30a67.11,67.11,0,0,0-11-26.66c-7.08-10.12-6.58-15.55-5.72-17a7.13,7.13,0,0,1,4.44-1.47c6.43,1.87,14.49,12.55,17.57,19.12A6.88,6.88,0,0,0,496.49,291.67ZM408.1,220.88h80.43v39.46a32,32,0,0,0-13.71-7.54,18.55,18.55,0,0,0-4.61-.55,19,19,0,0,0-13.53,5.6c-2.39,2.26-13.49,14.71,3.2,38.19l.8,1a16.41,16.41,0,0,1,2.66,3.83H408.1Zm-28.47,0h13.21v80H379.63ZM211.11,271.43a3.85,3.85,0,0,1-3.8-3.8v-.47a4,4,0,0,1,3.8-4.27h67.26a7.63,7.63,0,1,0,0-15.26l-57.19,0a3.24,3.24,0,0,1-2.66-3.36v-.47a4,4,0,0,1,3.8-4.27h56c4.13,0,7.88-3.53,7.88-7.41a8,8,0,0,0-7.88-7.85h-28a3.85,3.85,0,0,1-3.8-3.8v-.94a3.8,3.8,0,0,1,3.8-3.8h33.2c.88,0,1.82,0,2.76,0,19.63,0,43.74,4.64,48.26,11.42a7.79,7.79,0,0,0,6.8,4h22v59.41H348.88a8.92,8.92,0,0,0-6.2,2.87c-14.06,18.27-21.46,19.73-29.94,21.41-7.42,1-15.85,3-27.24,10.52-7.56,5.51-12.66,6.33-15,6.33a6.79,6.79,0,0,1-1.93-.24,10,10,0,0,1-1-4.75c1.27-6.29,12-14.06,18.88-17.73a7.92,7.92,0,0,0,3.85-10.75c-1.55-2.59-4.14-3.9-7.69-3.9H221.86a3.85,3.85,0,0,1-3.8-3.8v-.94a3.85,3.85,0,0,1,3.8-3.8h55.57a7.67,7.67,0,0,0,7.42-7.88,7.52,7.52,0,0,0-7.42-7.42H221.74Zm9.77,119.06v-80h39c-2.68,3.09-6.22,8-7.1,13.3a18.68,18.68,0,0,0,4.89,17.9c1,1.68,5.3,5.66,14.13,5.66,7.65,0,15.39-2.82,23.8-8.73a28.57,28.57,0,0,1,4.75-3.31v55.14Zm79.49,15.3V419H220.88V405.79ZM290.53,581a4,4,0,0,1-3.8-4.27v-55.1a7.65,7.65,0,1,0-15.3,0v66.31a4,4,0,0,1-4.27,3.8h-.47a3.85,3.85,0,0,1-3.8-3.8V520.69a7.63,7.63,0,0,0-7.85-7.37c-4.13,0-7.88,3.52-7.88,7.37l0,57.19a3.66,3.66,0,0,1-3.36,3.13h-.47a4,4,0,0,1-3.8-4.27v-56a7.56,7.56,0,0,0-7.88-7.37c-4.11,0-7.85,3.52-7.85,7.37v28A4,4,0,0,1,220,553h-.47a4,4,0,0,1-3.8-4.27V515.48c-1-19.73,3.76-46.12,11.58-50.67a8.77,8.77,0,0,0,3.36-7.15v-22h59.88v14.55a7.33,7.33,0,0,0,2.87,6.19c17.62,13.56,19.14,21.27,20.9,30.19l.1.43a12.12,12.12,0,0,1,.36,1.73,14.63,14.63,0,0,0,1,3.86c1.13,7,4,13.19,9.59,20.52,8,9.72,7.43,15.21,7,16.9a10.12,10.12,0,0,1-4.72,1c-6.34-1.28-14.09-12-17.74-18.89a7.91,7.91,0,0,0-10.73-3.81c-2.59,1.51-4,4.16-4,7.66v60.71a4,4,0,0,1-3.8,4.27ZM391,579.12l-80.43,0V539.19a31.25,31.25,0,0,0,13.63,7.51,12.45,12.45,0,0,0,4.64.54c5,0,9-2,13.57-5.09,2.4-2.25,13.5-14.65-3.2-37.72a26.82,26.82,0,0,1-3.36-4.8H391Zm28.47-1.37H406.26V498.22h13.17ZM427.31,483H331c-1.75-9.56-4-21.43-23.79-37.61V435.2h1a8.1,8.1,0,0,0,7.89-7.88v-95.9c9.47-1.75,21.21-4.28,37.11-24.14h10.18v1a7.7,7.7,0,0,0,7.85,7.89h96.38c1.54,11.5,4.64,22.34,23.7,37.12V363.9h-1a7.63,7.63,0,0,0-7.84,7.38v96.4c-10.11,1.74-21.57,4.06-37.16,23.68H435.2v-1C435.2,486.48,431.44,483,427.31,483ZM587,535.71H519.75c-3.86,0-7.38,3.76-7.38,7.88a7.63,7.63,0,0,0,7.38,7.85l57.19,0a3.68,3.68,0,0,1,3.13,3.4v.43a3.81,3.81,0,0,1-3.8,3.8h-56a8,8,0,0,0-7.85,7.88,7.69,7.69,0,0,0,7.85,7.88h28a3.85,3.85,0,0,1,3.8,3.8v.47a4,4,0,0,1-3.8,4.27H514.61c-1.16,0-2.33,0-3.6,0-3.81,0-7.62-.18-11.42-.49-4.05-.34-8.09-.83-12.1-1.52a92.5,92.5,0,0,1-11.3-2.6c-1.14-.35-2.28-.73-3.4-1.14a24.55,24.55,0,0,1-3.29-1.32c-.6-.33-1.22-.64-1.81-1A12.8,12.8,0,0,1,464,572.6c-.43-.56-.6-1.27-1.06-1.81a8.29,8.29,0,0,0-1.76-1.61,9.4,9.4,0,0,0-4.94-1.24h-22V508h14.55a7.41,7.41,0,0,0,6.2-2.84c13.49-17.58,21.17-19.13,30.06-20.92l1.21-.24c6.95-1.39,14.82-3,25.9-10.36,7.46-5.73,12.35-6.59,14.6-6.59a4.87,4.87,0,0,1,2.34.45,7.56,7.56,0,0,1,1.46,4.9c-1.86,6.41-12.57,14.06-19.27,17.62a7.41,7.41,0,0,0-4.13,4.74,6.48,6.48,0,0,0,.64,5.4c1.12,2.87,4,4.58,7.75,4.58h60.24a4,4,0,0,1,4.27,3.8V509a4,4,0,0,1-4.27,4.27h-55.1a7.63,7.63,0,1,0,0,15.26h66.48a7.05,7.05,0,0,1,.81-.07,3.08,3.08,0,0,1,3.29,3.41C591.28,534,589,535.71,587,535.71Z"/></svg>