<svg id="Capa_1" data-name="Capa 1" xmlns="http://www.w3.org/2000/svg" viewBox="0 0 800 800"><defs><style>.cls-1{fill:#009FE3;}.cls-2{fill:#fff;}</style></defs><title>Icono</title><circle class="cls-1" cx="400" cy="400" r="400"/><path class="cls-2" d="M334.34,535.64l-19.25-9.79c14.48-4.48,22.94-9.79,26.79-12.68a14.41,14.41,0,0,0,5.06-17.55c-4.7-11.57-10.2-33.37-10.2-56.74,0-34.3-26.06-63.27-59.06-65.91a30.79,30.79,0,0,0-12.72,0c-33.5,3.15-59.75,32.12-59.75,66,0,22.45-5.07,44.06-9.8,56.73a14.51,14.51,0,0,0,4.94,17.45c2.2,1.8,10.27,7.67,26.94,12.8l-19.23,9.78a27,27,0,0,0-14.94,24.26v39.75a7.83,7.83,0,0,0,15.66,0V559.9a10.56,10.56,0,0,1,6.75-9.89L232.47,541c8.74,13.51,23.58,21.82,39.15,21.82,16.09,0,30.28-7.93,39.2-21.83l17.41,9.1a11.44,11.44,0,0,1,6.22,9.86v39.75a7.87,7.87,0,0,0,8.07,7.63c4.3,0,8.06-3.56,8.06-7.63l0-40C349.07,548.79,343.16,540,334.34,535.64ZM243.7,503.19v10.15c-19.64-4.48-29.5-10.54-32.84-13,3.11-7.3,6.19-18,8.28-30.4A50.89,50.89,0,0,0,243.7,503.19Zm3.82,29.51a20.71,20.71,0,0,0,11-18.61v-4.47a62,62,0,0,0,11.83,1.28,63.93,63.93,0,0,0,11.39-1.29v4.48A21.11,21.11,0,0,0,293,532.63l1.78,1.11c-5.16,7.54-14.74,12.5-24.46,12.5a30.72,30.72,0,0,1-24.74-12.48Zm50.75-29.1a48.42,48.42,0,0,0,18.32-19.19,39.1,39.1,0,0,0-7.29-48.25c-8.95-8.53-25.15-18.7-51.51-18.7a8.6,8.6,0,0,0-5.74,2.29l-13,13c-2.88,2.93-2.93,7.91,0,11.52,2.81,2.72,8,2.87,11.45,0l10.64-10.64c15.44.58,27.93,5.32,37.21,14.2,7.94,6.74,9.93,18.59,4.76,28.13a37.36,37.36,0,0,1-32.39,18.9,36.52,36.52,0,0,1-36.91-36.91,8,8,0,0,0-12.52-6.64c.28-4.06.43-8.2.43-12.38,0-25.69,20.3-48.25,45.36-50.29a33.28,33.28,0,0,1,9.07,0c25.39,2,45.27,24.11,45.27,50.27,0,25,5.74,48.3,10.88,61.29a122.15,122.15,0,0,1-34.1,13.59Z"/><path class="cls-2" d="M225.38,565.66a7.87,7.87,0,0,0-8,8.07v25.92a7.75,7.75,0,0,0,8,7.63c4.3,0,8.07-3.56,8.07-7.63V573.73A8.17,8.17,0,0,0,225.38,565.66Z"/><path class="cls-2" d="M315.72,565.66a8,8,0,0,0-8.06,8.07v25.92a7.86,7.86,0,0,0,8.06,7.63,7.73,7.73,0,0,0,7.63-7.63V573.73A7.87,7.87,0,0,0,315.72,565.66Z"/><path class="cls-2" d="M551.19,425.36c-4.83-2.9-18.28-9.65-38.87-9.65a99.33,99.33,0,0,0-18.73,1.84,8.86,8.86,0,0,0-6.14,7.93V432a8,8,0,0,0,8.07,8.07,7.86,7.86,0,0,0,7.63-8c3.48-.29,6.71-.44,9.61-.44,7.12,0,13.19.78,17.68,2.29a52.61,52.61,0,0,1,11.83,4.44,6.67,6.67,0,0,0,4.25,1.69c2.3,0,4.46-1,6.71-3.31a7.11,7.11,0,0,0-2-11.37Z"/><path class="cls-2" d="M589.13,529l-30.6-11.17a4.87,4.87,0,0,1-3.12-4.66v-15.1l.92-.78c.75-.62,1.5-1.26,1.91-1.7a52.47,52.47,0,0,0,16.63-38.18V446.6l1-2.82a42.3,42.3,0,0,0,5.45-20.88v-36.3a8.18,8.18,0,0,0-8.07-8.07h-67A44.4,44.4,0,0,0,462,422.91a41.34,41.34,0,0,0,5.31,20.58l1.15,3.11v9.15a56.6,56.6,0,0,0,19.46,42.4v15.49a4.82,4.82,0,0,1-3,4.61l-30.75,11.24a27.6,27.6,0,0,0-17.25,25.63v44.94c0,4.3,3.56,8.07,7.63,8.07a8.17,8.17,0,0,0,8.07-8.07V555.14a11.47,11.47,0,0,1,7.33-10.64l30.47-11.19a11.4,11.4,0,0,0,3.92-2l19.51,14.42v53.87c0,4.07,3.77,7.63,8.07,7.63s8.07-3.56,8.07-7.63V545.34l19.72-14.58.58.31a17,17,0,0,1,2.42,1.47L583.75,544a11.52,11.52,0,0,1,7.44,10.67v44.94a7.83,7.83,0,0,0,15.66,0V554.79C607.3,544.12,600,533.55,589.13,529Zm-85.58-15.83v-5.59c4.79,1.77,10.25,2.5,15.57,3.21l2.31.06a60,60,0,0,0,17.89-3.13v5.45a22.8,22.8,0,0,0,.21,2.47c.07.57.14,1.18.19,1.76l-18.3,14-18.3-13.75A15.31,15.31,0,0,0,503.54,513.22Zm55.67-55.4a40.44,40.44,0,0,1-11.54,26.77c-6.68,6.71-15.58,10.26-25.73,10.26l-1.77,0c-19.64-.41-35.61-17.93-35.61-39.05V444.94a7.07,7.07,0,0,0-.62-3.41l-2.21-4.81a33.1,33.1,0,0,1-3.24-13.81,27.52,27.52,0,0,1,27.8-27.84h58.94v27.84a32.39,32.39,0,0,1-2.83,13.87l-2,4.47a5.18,5.18,0,0,0-1.15,3.7Z"/><path class="cls-2" d="M476.49,559.2a8.16,8.16,0,0,0-8.07,8v32.41c0,4.07,3.77,7.63,8.07,7.63a7.86,7.86,0,0,0,8.06-7.63V567.23A7.87,7.87,0,0,0,476.49,559.2Z"/><path class="cls-2" d="M566.8,559.2a7.85,7.85,0,0,0-8,8v32.41a7.75,7.75,0,0,0,8,7.63c4.3,0,8.07-3.56,8.07-7.63V567.23A8.15,8.15,0,0,0,566.8,559.2Z"/><path class="cls-2" d="M445.57,409c4.3-2.67,6.25-7,5.25-11.5l-3.12-21.89h41.76A27.55,27.55,0,0,0,517,348.13V245.26a27.18,27.18,0,0,0-25.63-27.42c-1.32-14.94-13-26-27.81-26H283.31a27.21,27.21,0,0,0-27.52,27.48V322.21a27.21,27.21,0,0,0,27.52,27.48h23.52a27.56,27.56,0,0,0,27.48,26h3.14l-1.57,7.2c-1.55,4.13.16,9,4.12,11.82a10.7,10.7,0,0,0,6.83,2.14c1.84,0,4.52-.24,6.36-2.12l26.26-19h4.37L433.89,409a10.68,10.68,0,0,0,5.87,1.64A12,12,0,0,0,445.57,409Zm-83.84-65.6a10.54,10.54,0,0,0-1-7l-.38-.52a9.11,9.11,0,0,0-6.57-2.73H283.31c-6.74,0-11.83-4.9-11.83-11.39V218.47a11.63,11.63,0,0,1,11.83-11.39H463.53a11.14,11.14,0,0,1,11.39,11.39V321.78c0,6.71-4.69,11.39-11.39,11.39H412.1c-.67,0-1.77.17-4.63,1.69l-53.08,38.67Zm67.85,25.8,3.51,20L395.25,364,414.5,349.7h49A27.52,27.52,0,0,0,491,322.21V233.54a11.55,11.55,0,0,1,9.83,11.72V346.13h-.44v2A11.49,11.49,0,0,1,489,360H437.58a8.06,8.06,0,0,0-6.17,2.76A6.77,6.77,0,0,0,429.58,369.24Zm-85.75-20-2.45,9.82h-6.2a11.54,11.54,0,0,1-11.72-9.82Z"/><path class="cls-2" d="M308.83,246.43h83.81a7.87,7.87,0,0,0,8.07-7.63,7.64,7.64,0,0,0-8.07-8.07H308.83a7.87,7.87,0,0,0-7.63,8.07A7.73,7.73,0,0,0,308.83,246.43Z"/><path class="cls-2" d="M308.36,278.84H437.58c4.45,0,8.07-3.42,8.05-7.38a7.12,7.12,0,0,0-1.67-5.69,8.32,8.32,0,0,0-6.38-2.63H308.36a7.85,7.85,0,0,0,0,15.7Z"/><path class="cls-2" d="M392.64,295.13H309.23a7.85,7.85,0,1,0,0,15.69h83.41a8,8,0,0,0,8.07-8.06A7.87,7.87,0,0,0,392.64,295.13Z"/></svg>