<svg id="Capa_1" data-name="Capa 1" xmlns="http://www.w3.org/2000/svg" viewBox="0 0 800 800"><defs><style>.cls-1{fill:#009FE3;}.cls-2{fill:#fff;}</style></defs><title>Icono</title><circle class="cls-1" cx="400" cy="400" r="400"/><path class="cls-2" d="M557.19,229.78H290.9c-4.55,0-8.11,3.81-8.11,8.67a8.22,8.22,0,0,0,8.11,8.11H557.19c4.54,0,8.67-3.87,8.67-8.11A8.8,8.8,0,0,0,557.19,229.78Z"/><path class="cls-2" d="M686.15,349a27.88,27.88,0,0,0-20.31-8.92c-16.16,0-29.31,13.4-29.31,29.87a27.08,27.08,0,0,0,5.34,16.69l-22.53,28.21V212.25c0-9.3-6.3-18.69-20.37-18.69H197.82c-12.54,0-20.32,7.81-20.32,20.37v372.7c0,11.11,8.93,19.81,20.32,19.81H597.29a20.15,20.15,0,0,0,20.37-20.37v-144l35.63-45.53a27.17,27.17,0,0,0,10.87,2.06,29.28,29.28,0,0,0,29.26-29.2A26.92,26.92,0,0,0,686.15,349ZM193.68,213.93a4.1,4.1,0,0,1,4.15-4.15h49.86v56.77h-54ZM602,434.83,575.9,469.1a24.91,24.91,0,0,0-12-2.56c-6.82,0-12.63,2-17.28,5.87l-36.25-29.21a29.24,29.24,0,0,0,2.55-12,29.86,29.86,0,0,0-29.83-29.82c-15.86,0-29.26,13.66-29.26,29.82,0,5,1.6,9.43,3.22,13.7l-39.8,36a28.53,28.53,0,0,0-14.92-4.23c-15.86,0-29.26,13.66-29.26,29.82a29.66,29.66,0,0,0,29.26,29.26c16.44,0,29.82-13.13,29.82-29.26a27.32,27.32,0,0,0-3.66-13.21l40.29-37c3.83,1.9,8.43,3.76,13.75,3.76a26.94,26.94,0,0,0,15.6-4.83L535,485a28.13,28.13,0,0,0-1.48,9.22c0,16.44,13.13,29.82,29.26,29.82,16.41,0,29.26-13.1,29.26-29.82,0-6.61-1.55-11.56-4.73-15.11l14.14-17.55v124c0,2.65-2.23,3.59-4.15,3.59l-399.46.56a4.1,4.1,0,0,1-4.15-4.15V282.73H602Zm-25.64,61a12.37,12.37,0,0,1-12.48,12.52c-6.6,0-12-5.62-12-12.52,0-6,4.57-12.48,12-12.48A12.35,12.35,0,0,1,576.36,495.81Zm-80.2-64.06c0,6.91-5.37,12.52-12,12.52a12.39,12.39,0,0,1-12.52-12.52c0-7.37,5.15-12.52,12.52-12.52C490.79,419.22,496.15,424.84,496.15,431.75Zm-80.76,74.68a12.24,12.24,0,0,1-12,12.48,12.37,12.37,0,0,1-12.52-12.48c0-7.37,5.15-12.52,12.52-12.52C410,493.9,415.39,499.52,415.39,506.43ZM603.12,266.56H265V209.78H599a4.1,4.1,0,0,1,4.15,4.15Zm62.72,114.78c-6.91,0-12.52-5.37-12.52-12,0-7.37,5.15-12.52,12.52-12.52a12.68,12.68,0,0,1,12.48,12.52C678.31,376.42,671.74,381.34,665.84,381.34Z"/><path class="cls-2" d="M243.54,415.9h107c4.52,0,8.06-3.81,8.06-8.67a8.17,8.17,0,0,0-8.06-8.07h-107a8.2,8.2,0,0,0-8.11,8.07C235.43,412.09,239,415.9,243.54,415.9Z"/><path class="cls-2" d="M243.54,452.68h107a8.2,8.2,0,0,0,8.06-8.11c0-4.78-3.62-8.67-8.06-8.67h-107a8.42,8.42,0,0,0-8.11,8.67A8.22,8.22,0,0,0,243.54,452.68Z"/><path class="cls-2" d="M243.54,490h107c4.22,0,8.06-4.13,8.06-8.67,0-4.78-3.62-8.67-8.06-8.67h-107a8.42,8.42,0,0,0-8.11,8.67C235.43,485.89,239.3,490,243.54,490Z"/><path class="cls-2" d="M243.54,526.75h107c4.45,0,8.06-3.87,8.06-8.63,0-4.54-3.84-8.67-8.06-8.67h-107c-4.25,0-8.11,4.13-8.11,8.67C235.43,523,239,526.75,243.54,526.75Z"/><path class="cls-2" d="M243.54,563.53h107c4.52,0,8.06-3.81,8.06-8.67a8.17,8.17,0,0,0-8.06-8.07h-107a8.2,8.2,0,0,0-8.11,8.07C235.43,559.72,239,563.53,243.54,563.53Z"/><path class="cls-2" d="M255.8,377.44H540.48a20.11,20.11,0,0,0,20.33-20.32v-30.6a19,19,0,0,0-5.35-13.91,20.73,20.73,0,0,0-15-6.51H255.8a20.15,20.15,0,0,0-20.37,20.37v30.65A20.13,20.13,0,0,0,255.8,377.44Zm-4.19-51.53a4.13,4.13,0,0,1,4.19-4.15H540.48a4.1,4.1,0,0,1,4.15,4.15v30.65a4.15,4.15,0,0,1-4.15,4.15H255.8a4.17,4.17,0,0,1-4.19-4.15Z"/></svg>